<svg width="175" height="25" viewBox="0 0 175 25" fill="none" xmlns="http://www.w3.org/2000/svg">
<path d="M6.512 1.248C8.272 1.248 9.816 1.592 11.144 2.28C12.488 2.968 13.52 3.952 14.24 5.232C14.976 6.496 15.344 7.968 15.344 9.648C15.344 11.328 14.976 12.8 14.24 14.064C13.52 15.312 12.488 16.28 11.144 16.968C9.816 17.656 8.272 18 6.512 18H0.656V1.248H6.512ZM6.392 15.144C8.152 15.144 9.512 14.664 10.472 13.704C11.432 12.744 11.912 11.392 11.912 9.648C11.912 7.904 11.432 6.544 10.472 5.568C9.512 4.576 8.152 4.08 6.392 4.08H4.016V15.144H6.392ZM30.2191 11.064C30.2191 11.544 30.1871 11.976 30.1231 12.36H20.4031C20.4831 13.32 20.8191 14.072 21.4111 14.616C22.0031 15.16 22.7311 15.432 23.5951 15.432C24.8431 15.432 25.7311 14.896 26.2591 13.824H29.8831C29.4991 15.104 28.7631 16.16 27.6751 16.992C26.5871 17.808 25.2511 18.216 23.6671 18.216C22.3871 18.216 21.2351 17.936 20.2111 17.376C19.2031 16.8 18.4111 15.992 17.8351 14.952C17.2751 13.912 16.9951 12.712 16.9951 11.352C16.9951 9.976 17.2751 8.768 17.8351 7.728C18.3951 6.688 19.1791 5.888 20.1871 5.328C21.1951 4.768 22.3551 4.488 23.6671 4.488C24.9311 4.488 26.0591 4.76 27.0511 5.304C28.0591 5.848 28.8351 6.624 29.3791 7.632C29.9391 8.624 30.2191 9.768 30.2191 11.064ZM26.7391 10.104C26.7231 9.24 26.4111 8.552 25.8031 8.04C25.1951 7.512 24.4511 7.248 23.5711 7.248C22.7391 7.248 22.0351 7.504 21.4591 8.016C20.8991 8.512 20.5551 9.208 20.4271 10.104H26.7391ZM38.2156 14.904L41.5756 4.704H45.1516L40.2316 18H36.1516L31.2556 4.704H34.8556L38.2156 14.904ZM52.9428 18.216C51.6628 18.216 50.5108 17.936 49.4868 17.376C48.4628 16.8 47.6548 15.992 47.0628 14.952C46.4868 13.912 46.1988 12.712 46.1988 11.352C46.1988 9.992 46.4948 8.792 47.0868 7.752C47.6948 6.712 48.5188 5.912 49.5588 5.352C50.5988 4.776 51.7588 4.488 53.0388 4.488C54.3188 4.488 55.4788 4.776 56.5188 5.352C57.5588 5.912 58.3748 6.712 58.9668 7.752C59.5748 8.792 59.8788 9.992 59.8788 11.352C59.8788 12.712 59.5668 13.912 58.9428 14.952C58.3348 15.992 57.5028 16.8 56.4468 17.376C55.4068 17.936 54.2388 18.216 52.9428 18.216ZM52.9428 15.288C53.5508 15.288 54.1188 15.144 54.6468 14.856C55.1908 14.552 55.6228 14.104 55.9428 13.512C56.2628 12.92 56.4228 12.2 56.4228 11.352C56.4228 10.088 56.0868 9.12 55.4148 8.448C54.7588 7.76 53.9508 7.416 52.9908 7.416C52.0308 7.416 51.2228 7.76 50.5668 8.448C49.9268 9.12 49.6068 10.088 49.6068 11.352C49.6068 12.616 49.9188 13.592 50.5428 14.28C51.1828 14.952 51.9828 15.288 52.9428 15.288ZM65.7035 6.624C66.1355 6.016 66.7275 5.512 67.4795 5.112C68.2475 4.696 69.1195 4.488 70.0955 4.488C71.2315 4.488 72.2555 4.768 73.1675 5.328C74.0955 5.888 74.8235 6.688 75.3515 7.728C75.8955 8.752 76.1675 9.944 76.1675 11.304C76.1675 12.664 75.8955 13.872 75.3515 14.928C74.8235 15.968 74.0955 16.776 73.1675 17.352C72.2555 17.928 71.2315 18.216 70.0955 18.216C69.1195 18.216 68.2555 18.016 67.5035 17.616C66.7675 17.216 66.1675 16.712 65.7035 16.104V24.336H62.3435V4.704H65.7035V6.624ZM72.7355 11.304C72.7355 10.504 72.5675 9.816 72.2315 9.24C71.9115 8.648 71.4795 8.2 70.9355 7.896C70.4075 7.592 69.8315 7.44 69.2075 7.44C68.5995 7.44 68.0235 7.6 67.4795 7.92C66.9515 8.224 66.5195 8.672 66.1835 9.264C65.8635 9.856 65.7035 10.552 65.7035 11.352C65.7035 12.152 65.8635 12.848 66.1835 13.44C66.5195 14.032 66.9515 14.488 67.4795 14.808C68.0235 15.112 68.5995 15.264 69.2075 15.264C69.8315 15.264 70.4075 15.104 70.9355 14.784C71.4795 14.464 71.9115 14.008 72.2315 13.416C72.5675 12.824 72.7355 12.12 72.7355 11.304ZM83.6971 18.216C82.6091 18.216 81.6331 18.024 80.7691 17.64C79.9051 17.24 79.2171 16.704 78.7051 16.032C78.2091 15.36 77.9371 14.616 77.8891 13.8H81.2731C81.3371 14.312 81.5851 14.736 82.0171 15.072C82.4651 15.408 83.0171 15.576 83.6731 15.576C84.3131 15.576 84.8091 15.448 85.1611 15.192C85.5291 14.936 85.7131 14.608 85.7131 14.208C85.7131 13.776 85.4891 13.456 85.0411 13.248C84.6091 13.024 83.9131 12.784 82.9531 12.528C81.9611 12.288 81.1451 12.04 80.5051 11.784C79.8811 11.528 79.3371 11.136 78.8731 10.608C78.4251 10.08 78.2011 9.368 78.2011 8.472C78.2011 7.736 78.4091 7.064 78.8251 6.456C79.2571 5.848 79.8651 5.368 80.6491 5.016C81.4491 4.664 82.3851 4.488 83.4571 4.488C85.0411 4.488 86.3051 4.888 87.2491 5.688C88.1931 6.472 88.7131 7.536 88.8091 8.88H85.5931C85.5451 8.352 85.3211 7.936 84.9211 7.632C84.5371 7.312 84.0171 7.152 83.3611 7.152C82.7531 7.152 82.2811 7.264 81.9451 7.488C81.6251 7.712 81.4651 8.024 81.4651 8.424C81.4651 8.872 81.6891 9.216 82.1371 9.456C82.5851 9.68 83.2811 9.912 84.2251 10.152C85.1851 10.392 85.9771 10.64 86.6011 10.896C87.2251 11.152 87.7611 11.552 88.2091 12.096C88.6731 12.624 88.9131 13.328 88.9291 14.208C88.9291 14.976 88.7131 15.664 88.2811 16.272C87.8651 16.88 87.2571 17.36 86.4571 17.712C85.6731 18.048 84.7531 18.216 83.6971 18.216ZM90.8232 11.352C90.8232 9.976 91.1033 8.776 91.6633 7.752C92.2233 6.712 92.9993 5.912 93.9913 5.352C94.9833 4.776 96.1193 4.488 97.3993 4.488C99.0473 4.488 100.407 4.904 101.479 5.736C102.567 6.552 103.295 7.704 103.663 9.192H100.039C99.8473 8.616 99.5193 8.168 99.0553 7.848C98.6073 7.512 98.0473 7.344 97.3753 7.344C96.4153 7.344 95.6553 7.696 95.0953 8.4C94.5353 9.088 94.2553 10.072 94.2553 11.352C94.2553 12.616 94.5353 13.6 95.0953 14.304C95.6553 14.992 96.4153 15.336 97.3753 15.336C98.7353 15.336 99.6233 14.728 100.039 13.512H103.663C103.295 14.952 102.567 16.096 101.479 16.944C100.391 17.792 99.0313 18.216 97.3993 18.216C96.1193 18.216 94.9833 17.936 93.9913 17.376C92.9993 16.8 92.2233 16 91.6633 14.976C91.1033 13.936 90.8232 12.728 90.8232 11.352ZM109.485 6.768C109.917 6.064 110.477 5.512 111.165 5.112C111.869 4.712 112.669 4.512 113.565 4.512V8.04H112.677C111.621 8.04 110.821 8.288 110.277 8.784C109.749 9.28 109.485 10.144 109.485 11.376V18H106.125V4.704H109.485V6.768ZM128.38 4.704V18H124.996V16.32C124.564 16.896 123.996 17.352 123.292 17.688C122.604 18.008 121.852 18.168 121.036 18.168C119.996 18.168 119.076 17.952 118.276 17.52C117.476 17.072 116.844 16.424 116.38 15.576C115.932 14.712 115.708 13.688 115.708 12.504V4.704H119.068V12.024C119.068 13.08 119.332 13.896 119.86 14.472C120.388 15.032 121.108 15.312 122.02 15.312C122.948 15.312 123.676 15.032 124.204 14.472C124.732 13.896 124.996 13.08 124.996 12.024V4.704H128.38ZM139.063 4.512C140.647 4.512 141.927 5.016 142.903 6.024C143.879 7.016 144.367 8.408 144.367 10.2V18H141.007V10.656C141.007 9.6 140.743 8.792 140.215 8.232C139.687 7.656 138.967 7.368 138.055 7.368C137.127 7.368 136.391 7.656 135.847 8.232C135.319 8.792 135.055 9.6 135.055 10.656V18H131.695V4.704H135.055V6.36C135.503 5.784 136.071 5.336 136.759 5.016C137.463 4.68 138.231 4.512 139.063 4.512ZM146.698 11.352C146.698 9.976 146.978 8.776 147.538 7.752C148.098 6.712 148.874 5.912 149.866 5.352C150.858 4.776 151.994 4.488 153.274 4.488C154.922 4.488 156.282 4.904 157.354 5.736C158.442 6.552 159.17 7.704 159.538 9.192H155.914C155.722 8.616 155.394 8.168 154.93 7.848C154.482 7.512 153.922 7.344 153.25 7.344C152.29 7.344 151.53 7.696 150.97 8.4C150.41 9.088 150.13 10.072 150.13 11.352C150.13 12.616 150.41 13.6 150.97 14.304C151.53 14.992 152.29 15.336 153.25 15.336C154.61 15.336 155.498 14.728 155.914 13.512H159.538C159.17 14.952 158.442 16.096 157.354 16.944C156.266 17.792 154.906 18.216 153.274 18.216C151.994 18.216 150.858 17.936 149.866 17.376C148.874 16.8 148.098 16 147.538 14.976C146.978 13.936 146.698 12.728 146.698 11.352ZM169.488 4.512C170.496 4.512 171.392 4.736 172.176 5.184C172.96 5.616 173.568 6.264 174 7.128C174.448 7.976 174.672 9 174.672 10.2V18H171.312V10.656C171.312 9.6 171.048 8.792 170.52 8.232C169.992 7.656 169.272 7.368 168.36 7.368C167.432 7.368 166.696 7.656 166.152 8.232C165.624 8.792 165.36 9.6 165.36 10.656V18H162V0.24H165.36V6.36C165.792 5.784 166.368 5.336 167.088 5.016C167.808 4.68 168.608 4.512 169.488 4.512Z" fill="white"/>
</svg>
