<svg width="6" height="27" viewBox="0 0 6 27" fill="none" xmlns="http://www.w3.org/2000/svg">
<path d="M3.088 26.5717C2.256 26.5717 1.552 26.2837 0.976 25.7077C0.4 25.1317 0.112 24.4277 0.112 23.5957C0.112 22.7637 0.4 22.0597 0.976 21.4837C1.552 20.9077 2.256 20.6197 3.088 20.6197C3.888 20.6197 4.56 20.9077 5.104 21.4837C5.68 22.0597 5.968 22.7637 5.968 23.5957C5.968 24.4277 5.68 25.1317 5.104 25.7077C4.56 26.2837 3.888 26.5717 3.088 26.5717ZM3.088 6.02769C2.256 6.02769 1.552 5.73969 0.976 5.16369C0.4 4.58769 0.112 3.88369 0.112 3.05169C0.112 2.21969 0.4 1.51569 0.976 0.939692C1.552 0.363691 2.256 0.0756912 3.088 0.0756912C3.888 0.0756912 4.56 0.363691 5.104 0.939692C5.68 1.51569 5.968 2.21969 5.968 3.05169C5.968 3.88369 5.68 4.58769 5.104 5.16369C4.56 5.73969 3.888 6.02769 3.088 6.02769Z" fill="white"/>
</svg>
